<svg width="1080" height="1080" viewBox="0 0 1080 1080" fill="none" xmlns="http://www.w3.org/2000/svg">
<rect width="1080" height="1080" rx="144" fill="#FF0054"/>
<path d="M943 540C943 589.93 908.76 643.84 834.72 687.969C761.728 731.474 657.647 760 540 760C422.353 760 318.272 731.474 245.28 687.969C171.24 643.84 137 589.93 137 540C137 490.07 171.24 436.16 245.28 392.031C318.272 348.526 422.353 320 540 320C657.647 320 761.728 348.526 834.72 392.031C908.76 436.16 943 490.07 943 540Z" stroke="white" stroke-width="100"/>
<path d="M540 529.111C512.778 529.111 489.639 524.846 470.583 516.317C451.528 507.787 442 497.533 442 485.556C442 473.578 451.528 463.324 470.583 454.794C489.639 446.265 512.778 442 540 442C567.222 442 590.361 446.265 609.417 454.794C628.472 463.324 638 473.578 638 485.556C638 497.533 628.472 507.787 609.417 516.317C590.361 524.846 567.222 529.111 540 529.111ZM540 583.556C512.778 583.556 489.639 579.291 470.583 570.761C451.528 562.231 442 551.978 442 540V512.778C442 520.763 445.72 527.525 453.161 533.064C460.602 538.595 469.494 543.085 479.839 546.533C490.183 549.981 500.938 552.475 512.103 554.014C523.26 555.56 532.559 556.333 540 556.333C547.441 556.333 556.74 555.56 567.897 554.014C579.062 552.475 589.817 549.981 600.161 546.533C610.506 543.085 619.398 538.595 626.839 533.064C634.28 527.525 638 520.763 638 512.778V540C638 551.978 628.472 562.231 609.417 570.761C590.361 579.291 567.222 583.556 540 583.556ZM540 638C512.778 638 489.639 633.735 470.583 625.206C451.528 616.676 442 606.422 442 594.444V567.222C442 575.207 445.72 581.969 453.161 587.508C460.602 593.04 469.494 597.53 479.839 600.978C490.183 604.426 500.938 606.923 512.103 608.469C523.26 610.008 532.559 610.778 540 610.778C547.441 610.778 556.74 610.008 567.897 608.469C579.062 606.923 589.817 604.426 600.161 600.978C610.506 597.53 619.398 593.04 626.839 587.508C634.28 581.969 638 575.207 638 567.222V594.444C638 606.422 628.472 616.676 609.417 625.206C590.361 633.735 567.222 638 540 638Z" fill="white"/>
</svg>
